<svg 
          width="20.0272216796875" 
          height="19.133625030517578" fill="none" 
          xmlns="http://www.w3.org/2000/svg">
          <path d="M 19.993629455566406 7.234109878540039 C 19.93047622591257 7.051197409629822 19.81561030447483 6.890537358820438 19.662960052490234 6.771612167358398 C 19.510309800505638 6.6526869758963585 19.32643234729767 6.580605490133166 19.133628845214844 6.564109802246094 L 13.443629264831543 5.734109878540039 L 10.89362907409668 0.5641100406646729 C 10.81174424290657 0.39503902196884155 10.683892324566841 0.2524520307779312 10.524718284606934 0.15268349647521973 C 10.365544244647026 0.05291496217250824 10.181486144661903 4.440892098500626e-16 9.993629455566406 0 C 9.80577276647091 4.440892098500626e-16 9.621714666485786 0.05291496217250824 9.462540626525879 0.15268349647521973 C 9.303366586565971 0.2524520307779312 9.175514668226242 0.39503902196884155 9.093629837036133 0.5641100406646729 L 6.543630123138428 5.724109649658203 L 0.8536297082901001 6.564109802246094 C 0.6685521751642227 6.590415757149458 0.49455392360687256 6.6680727154016495 0.35138002038002014 6.788268089294434 C 0.20820611715316772 6.908463463187218 0.10158969461917877 7.066384628415108 0.043629784137010574 7.244110107421875 C -0.009425248950719833 7.4177844524383545 -0.014186305925250053 7.602627515792847 0.029857533052563667 7.778802871704102 C 0.07390137203037739 7.9549782276153564 0.16508743166923523 8.11583511531353 0.29362979531288147 8.244110107421875 L 4.4236297607421875 12.244110107421875 L 3.4236297607421875 17.924110412597656 C 3.3832565285265446 18.112532302737236 3.398183561861515 18.308605954051018 3.4666147232055664 18.488744735717773 C 3.5350458845496178 18.66888351738453 3.6540666669607162 18.825414143502712 3.809359073638916 18.93950653076172 C 3.964651480317116 19.053598918020725 4.149600923061371 19.120393889024854 4.341958522796631 19.131855010986328 C 4.534316122531891 19.143316132947803 4.725888609886169 19.09895560145378 4.893630027770996 19.00411033630371 L 9.993629455566406 16.334110260009766 L 15.093629837036133 19.00411033630371 C 15.233977541327477 19.083286896348 15.392488837242126 19.12463683646638 15.553628921508789 19.124109268188477 C 15.76545538008213 19.124863664153963 15.972049906849861 19.05833464115858 16.14362907409668 18.934110641479492 C 16.29877531528473 18.822971768677235 16.418879099190235 18.669757425785065 16.489757537841797 18.49256134033203 C 16.56063597649336 18.315365254878998 16.57932847738266 18.121587932109833 16.543628692626953 17.934110641479492 L 15.543628692626953 12.254109382629395 L 19.673629760742188 8.254109382629395 C 19.818011313676834 8.13178876787424 19.92472269386053 7.971012756228447 19.981367111206055 7.790458679199219 C 20.03801152855158 7.6099046021699905 20.042263507843018 7.416984409093857 19.993629455566406 7.234109878540039 Z M 13.843629837036133 11.234109878540039 C 13.727886095643044 11.346515975892544 13.641058575361967 11.485259220004082 13.590559959411621 11.638496398925781 C 13.540061343461275 11.79173357784748 13.527391282841563 11.954914256930351 13.553629875183105 12.114109992980957 L 14.273630142211914 16.314109802246094 L 10.513629913330078 14.314109802246094 C 10.367499098181725 14.241821512579918 10.206662803888321 14.204216003417965 10.04362964630127 14.204216003417969 C 9.880596488714218 14.204216003417965 9.719760194420815 14.241821512579918 9.573629379272461 14.314109802246094 L 5.813630104064941 16.314109802246094 L 6.533629894256592 12.114109992980957 C 6.559868486598134 11.954914256930351 6.547197472304106 11.79173357784748 6.49669885635376 11.638496398925781 C 6.446200240403414 11.485259220004082 6.359373673796654 11.346515975892544 6.2436299324035645 11.234109878540039 L 3.2436299324035645 8.234109878540039 L 7.453629970550537 7.624110221862793 C 7.6156285256147385 7.601576780900359 7.769627466797829 7.539650872349739 7.90212869644165 7.443761825561523 C 8.034629926085472 7.347872778773308 8.141588188707829 7.220947712659836 8.213629722595215 7.07411003112793 L 9.993629455566406 3.2641098499298096 L 11.873629570007324 7.084110260009766 C 11.94567110389471 7.230947941541672 12.052629843354225 7.357873007655144 12.185131072998047 7.453762054443359 C 12.317632302641869 7.549651101231575 12.471631243824959 7.611576056107879 12.63362979888916 7.6341094970703125 L 16.843629837036133 8.244110107421875 L 13.843629837036133 11.234109878540039 Z" fill="rgb(0,0,0)"/>
        </svg>