<svg 
          width="20" 
          height="20" fill="none" 
          xmlns="http://www.w3.org/2000/svg">
          <path d="M 20 10.468749999999998 C 20 11.16796872554681 19.832029709449177 11.816407044728596 19.49609218499599 12.410157032502003 C 19.160154660542805 13.00390702027541 18.7109375 13.468749431463388 18.14453125 13.792968163123497 C 18.16015624942688 13.898436908538525 18.16796718499599 14.062499816601091 18.16796718499599 14.285156054374498 C 18.16796718499599 15.343749706561749 17.8125 16.242186717497994 17.109375 16.984374217497994 C 16.402343786679783 17.73046793081821 15.550780601990528 18.101562108748997 14.554686913123497 18.101562108748997 C 14.109374437576685 18.101562108748997 13.683593731660107 18.019529672769398 13.281249999999998 17.85546718499599 C 12.968749999999998 18.496092160542805 12.519530822069216 19.011717943044808 11.929687108748997 19.406249217497994 C 11.343749608748997 19.8046867052714 10.699218725546812 20 10 20 C 9.285156298906376 20 8.636718407655373 19.80859218499599 8.058593456561749 19.41796718499599 C 7.476562231014936 19.031248459449177 7.031249510936248 18.511717136089615 6.718749510936248 17.85546718499599 C 6.316405779276138 18.019529672769398 5.894530828182513 18.101562108748997 5.445312108748998 18.101562108748997 C 4.449218419881967 18.101562108748997 3.5937497554681235 17.73046793081821 2.878906054374499 16.984374217497994 C 2.1640623532808743 16.242186717497994 1.8085937010936246 15.339843554374498 1.8085937010936246 14.285156054374498 C 1.8085937010936246 14.167968562016119 1.8242187263109744 14.003905653953552 1.8515624755468123 13.792968163123497 C 1.2851562255468123 13.464843187576685 0.8359375061132969 13.00390702027541 0.4999999816601093 12.410157032502003 C 0.16796873166010934 11.816407044728596 0 11.16796872554681 0 10.468749999999998 C 0 9.726562499999998 0.18749995109362477 9.042968505468123 0.5585937010936247 8.425781054374498 C 0.9296874510936246 7.808593603280873 1.4296874021872492 7.351562396073953 2.054687402187249 7.054687402187249 C 1.890624914413843 6.609374926640437 1.8085937010936246 6.160155932108561 1.8085937010936246 5.7148434565617485 C 1.8085937010936246 4.6601559565617485 2.1640623532808743 3.757812304374499 2.878906054374499 3.015624804374499 C 3.5937497554681235 2.273437304374499 4.449218419881967 1.8984374021872494 5.445312108748998 1.8984374021872494 C 5.89062458429581 1.8984374021872494 6.316405779276138 1.980468615507468 6.718749510936248 2.1445311032808743 C 7.031249510936248 1.503906127734062 7.480468688867029 0.9882812622265937 8.070312402187248 0.5937499877734062 C 8.656249902187248 0.19921871332021857 9.300781274453188 0 10 0 C 10.699218725546812 0 11.343749608748997 0.19921871332021862 11.929687108748997 0.5898437133202186 C 12.515624608748997 0.9843749877734062 12.968749999999998 1.4999999755468123 13.281249999999998 2.1406249510936246 C 13.683593731660107 1.9765624633202183 14.105468193689982 1.8945311277340617 14.554686913123497 1.8945311277340617 C 15.550780601990528 1.8945311277340617 16.402343786679783 2.2656249388670306 17.109375 3.011718652187249 C 17.816406213320217 3.7578123655074678 18.16796718499599 4.656249804374498 18.16796718499599 5.710937304374498 C 18.16796718499599 6.203124798261202 18.09374960569235 6.6484370292761374 17.945312108748997 7.050780760936247 C 18.570312108748997 7.34765575482295 19.070311326246994 7.804686962029872 19.441405076246994 8.421874413123497 C 19.812498826246994 9.04296813867031 20 9.726562499999998 20 10.468749999999998 Z M 9.574218163123497 13.480468163123497 L 13.703124217497995 7.2968747065617485 C 13.808592962913023 7.1328122187883425 13.839843357220673 6.9531248930173035 13.804687108748997 6.761718652187249 C 13.765624608748997 6.570312411357195 13.667968542147905 6.417968548261202 13.503906054374498 6.316406054374498 C 13.339843566601091 6.210937308959471 13.160156240830053 6.175780957325911 12.968749999999998 6.2031247065617485 C 12.773437499999998 6.234374705415505 12.617187492358378 6.328124816601092 12.499999999999998 6.492187304374498 L 8.863280858748997 11.960938282502003 L 7.187499510936247 10.289062108748997 C 7.039062013992895 10.140624611805645 6.867187099579052 10.070312500286558 6.675780858748998 10.078124999999998 C 6.480468358748998 10.085937499713438 6.3124997035051 10.156249617918942 6.1640622065617485 10.289062108748997 C 6.031249715731694 10.421874599579052 5.964843554374498 10.589842979724589 5.964843554374498 10.792967967497995 C 5.964843554374498 10.992186711384699 6.031249715731694 11.160157032502003 6.1640622065617485 11.296875782502003 L 8.464843554374498 13.597655663123497 L 8.578124413123497 13.687499608748997 C 8.710936903953552 13.777343355692349 8.847655867918942 13.820311717497995 8.980468358748997 13.820311717497995 C 9.242187096522404 13.816405467641276 9.441405672293442 13.707030660066849 9.574218163123497 13.480468163123497 Z" fill="rgb(29.000000171363354,161.0000056028366,242.00000077486038)"/>
        </svg>